<svg width="11" height="24" viewBox="0 0 11 24" fill="none" xmlns="http://www.w3.org/2000/svg">
<g clip-path="url(#clip0_1_3378)">
<path d="M1.65506 21.1915C1.60883 22.0743 0.743979 22.7043 0.743979 22.7043C0.743979 22.7043 -0.0446394 21.9032 0.00198915 21.0208C0.0482113 20.138 0.913066 19.508 0.913066 19.508C0.913066 19.508 1.7017 20.3084 1.65506 21.1915Z" fill="#F4B71A"/>
<path d="M2.70922 23.9983C1.79519 23.9564 1.14551 23.1232 1.14551 23.1232C1.14551 23.1232 1.97765 22.3592 2.89122 22.4014C3.80526 22.4433 4.45495 23.2765 4.45495 23.2765C4.45495 23.2765 3.62362 24.0406 2.70922 23.9983Z" fill="#F4B71A"/>
<path d="M3.65356 19.4226C3.7758 20.298 3.04482 21.0702 3.04482 21.0702C3.04482 21.0702 2.11697 20.4228 1.99523 19.5477C1.873 18.6723 2.60397 17.9001 2.60397 17.9001C2.60397 17.9001 3.53168 18.5467 3.65356 19.4226Z" fill="#F4B71A"/>
<path d="M5.22477 21.9933C4.31779 22.1141 3.52051 21.4107 3.52051 21.4107C3.52051 21.4107 4.19385 20.5127 5.10044 20.3923C6.00742 20.2715 6.8047 20.9749 6.8047 20.9749C6.8047 20.9749 6.13218 21.8728 5.22477 21.9933Z" fill="#F4B71A"/>
<path d="M5.14294 17.267C5.41335 18.1104 4.82422 18.9881 4.82422 18.9881C4.82422 18.9881 3.79789 18.4982 3.52803 17.655C3.25762 16.8117 3.84676 15.9339 3.84676 15.9339C3.84676 15.9339 4.87281 16.4231 5.14294 17.267Z" fill="#F4B71A"/>
<path d="M7.13288 19.5504C6.25862 19.8143 5.35156 19.2482 5.35156 19.2482C5.35156 19.2482 5.86226 18.2555 6.73624 17.9922C7.6105 17.7284 8.51756 18.2944 8.51756 18.2944C8.51756 18.2944 8.00762 19.2868 7.13288 19.5504Z" fill="#F4B71A"/>
<path d="M6.16306 15.0006C6.57531 15.7883 6.14549 16.748 6.14549 16.748C6.14549 16.748 5.04846 16.4303 4.63678 15.6428C4.22453 14.8551 4.65436 13.8953 4.65436 13.8953C4.65436 13.8953 5.751 14.2124 6.16306 15.0006Z" fill="#F4B71A"/>
<path d="M8.52044 16.9308C7.70344 17.3314 6.71094 16.9194 6.71094 16.9194C6.71094 16.9194 7.04355 15.859 7.86036 15.4589C8.67735 15.0583 9.66988 15.4703 9.66988 15.4703C9.66988 15.4703 9.33799 16.5303 8.52044 16.9308Z" fill="#F4B71A"/>
<path d="M6.95935 12.6398C7.46904 13.3722 7.16464 14.3754 7.16464 14.3754C7.16464 14.3754 6.035 14.1905 5.52592 13.4583C5.01626 12.7259 5.32066 11.7227 5.32066 11.7227C5.32066 11.7227 6.44981 11.9069 6.95935 12.6398Z" fill="#F4B71A"/>
<path d="M9.54695 14.2748C8.7869 14.7693 7.74902 14.4786 7.74902 14.4786C7.74902 14.4786 7.94411 13.3871 8.70404 12.8932C9.46406 12.3986 10.5019 12.6893 10.5019 12.6893C10.5019 12.6893 10.3075 13.7803 9.54695 14.2748Z" fill="#F4B71A"/>
<path d="M7.47418 10.2523C8.06771 10.9231 7.88445 11.953 7.88445 11.953C7.88445 11.953 6.7399 11.8946 6.14694 11.2239C5.55341 10.5532 5.73667 9.52325 5.73667 9.52325C5.73667 9.52325 6.88067 9.58101 7.47418 10.2523Z" fill="#F4B71A"/>
<path d="M10.239 11.5886C9.54252 12.164 8.47656 11.9903 8.47656 11.9903C8.47656 11.9903 8.54069 10.8848 9.23716 10.3101C9.93368 9.73474 10.9996 9.90839 10.9996 9.90839C10.9996 9.90839 10.9361 11.0133 10.239 11.5886Z" fill="#F4B71A"/>
<path d="M7.34315 7.71056C8.05229 8.26696 8.06365 9.31134 8.06365 9.31134C8.06365 9.31134 6.92611 9.45267 6.21757 8.89622C5.50843 8.33984 5.49707 7.29544 5.49707 7.29544C5.49707 7.29544 6.63395 7.15363 7.34315 7.71056Z" fill="#F4B71A"/>
<path d="M10.3134 8.54463C9.73487 9.23119 8.65327 9.24553 8.65327 9.24553C8.65327 9.24553 8.51057 8.14759 9.08914 7.46159C9.66766 6.77503 10.7493 6.76068 10.7493 6.76068C10.7493 6.76068 10.8925 7.85799 10.3134 8.54463Z" fill="#F4B71A"/>
<path d="M6.74971 5.30719C7.55521 5.72423 7.77021 6.74725 7.77021 6.74725C7.77021 6.74725 6.67989 7.09301 5.87496 6.67578C5.06946 6.25874 4.85449 5.23573 4.85449 5.23573C4.85449 5.23573 5.94407 4.88962 6.74971 5.30719Z" fill="#F4B71A"/>
<path d="M9.83016 5.58545C9.3956 6.36459 8.33545 6.57555 8.33545 6.57555C8.33545 6.57555 7.98095 5.52385 8.41567 4.74523C8.8502 3.96609 9.91038 3.75513 9.91038 3.75513C9.91038 3.75513 10.2652 4.80611 9.83016 5.58545Z" fill="#F4B71A"/>
<path d="M5.84176 2.8587C6.71101 3.13257 7.10871 4.1027 7.10871 4.1027C7.10871 4.1027 6.09754 4.62766 5.22887 4.35355C4.35962 4.07969 3.96191 3.10953 3.96191 3.10953C3.96191 3.10953 4.97226 2.58435 5.84176 2.8587Z" fill="#F4B71A"/>
<path d="M8.92774 2.61064C8.64132 3.45091 7.63537 3.83811 7.63537 3.83811C7.63537 3.83811 7.09502 2.86339 7.38171 2.02363C7.66812 1.18335 8.67408 0.796143 8.67408 0.796143C8.67408 0.796143 9.21464 1.77011 8.92774 2.61064Z" fill="#F4B71A"/>
<path d="M5.87375 0.498224C6.44903 1.05079 6.39488 2.00349 6.39488 2.00349C6.39488 2.00349 5.40881 2.05949 4.83403 1.50689C4.25873 0.954323 4.31288 0.00162427 4.31288 0.00162427C4.31288 0.00162427 5.29845 -0.0548512 5.87375 0.498224Z" fill="#F4B71A"/>
</g>
<defs>
<clipPath id="clip0_1_3378">
<rect width="11" height="24" fill="white"/>
</clipPath>
</defs>
</svg>
