<svg width="11" height="24" viewBox="0 0 11 24" fill="none" xmlns="http://www.w3.org/2000/svg">
<g clip-path="url(#clip0_1_3357)">
<path d="M9.34494 21.1915C9.39117 22.0743 10.256 22.7043 10.256 22.7043C10.256 22.7043 11.0446 21.9032 10.998 21.0208C10.9518 20.138 10.0869 19.508 10.0869 19.508C10.0869 19.508 9.2983 20.3084 9.34494 21.1915Z" fill="#F4B71A"/>
<path d="M8.29078 23.9983C9.20481 23.9564 9.85449 23.1232 9.85449 23.1232C9.85449 23.1232 9.02235 22.3592 8.10878 22.4014C7.19474 22.4433 6.54505 23.2765 6.54505 23.2765C6.54505 23.2765 7.37638 24.0406 8.29078 23.9983Z" fill="#F4B71A"/>
<path d="M7.34644 19.4226C7.2242 20.298 7.95518 21.0702 7.95518 21.0702C7.95518 21.0702 8.88303 20.4228 9.00477 19.5477C9.127 18.6723 8.39603 17.9001 8.39603 17.9001C8.39603 17.9001 7.46832 18.5467 7.34644 19.4226Z" fill="#F4B71A"/>
<path d="M5.77523 21.9933C6.68221 22.1141 7.47949 21.4107 7.47949 21.4107C7.47949 21.4107 6.80615 20.5127 5.89956 20.3923C4.99258 20.2715 4.1953 20.9749 4.1953 20.9749C4.1953 20.9749 4.86782 21.8728 5.77523 21.9933Z" fill="#F4B71A"/>
<path d="M5.85706 17.267C5.58665 18.1104 6.17578 18.9881 6.17578 18.9881C6.17578 18.9881 7.20211 18.4982 7.47197 17.655C7.74238 16.8117 7.15324 15.9339 7.15324 15.9339C7.15324 15.9339 6.12719 16.4231 5.85706 17.267Z" fill="#F4B71A"/>
<path d="M3.86712 19.5504C4.74138 19.8143 5.64844 19.2482 5.64844 19.2482C5.64844 19.2482 5.13774 18.2555 4.26376 17.9922C3.3895 17.7284 2.48244 18.2944 2.48244 18.2944C2.48244 18.2944 2.99238 19.2868 3.86712 19.5504Z" fill="#F4B71A"/>
<path d="M4.83694 15.0006C4.42469 15.7883 4.85451 16.748 4.85451 16.748C4.85451 16.748 5.95154 16.4303 6.36322 15.6428C6.77547 14.8551 6.34564 13.8953 6.34564 13.8953C6.34564 13.8953 5.249 14.2124 4.83694 15.0006Z" fill="#F4B71A"/>
<path d="M2.47956 16.9308C3.29656 17.3314 4.28906 16.9194 4.28906 16.9194C4.28906 16.9194 3.95645 15.859 3.13964 15.4589C2.32265 15.0583 1.33012 15.4703 1.33012 15.4703C1.33012 15.4703 1.66201 16.5303 2.47956 16.9308Z" fill="#F4B71A"/>
<path d="M4.04065 12.6398C3.53096 13.3722 3.83536 14.3754 3.83536 14.3754C3.83536 14.3754 4.965 14.1905 5.47408 13.4583C5.98374 12.7259 5.67934 11.7227 5.67934 11.7227C5.67934 11.7227 4.55019 11.9069 4.04065 12.6398Z" fill="#F4B71A"/>
<path d="M1.45305 14.2748C2.2131 14.7693 3.25098 14.4786 3.25098 14.4786C3.25098 14.4786 3.05589 13.3871 2.29596 12.8932C1.53594 12.3986 0.498062 12.6893 0.498062 12.6893C0.498062 12.6893 0.692459 13.7803 1.45305 14.2748Z" fill="#F4B71A"/>
<path d="M3.52582 10.2523C2.93229 10.9231 3.11555 11.953 3.11555 11.953C3.11555 11.953 4.2601 11.8946 4.85306 11.2239C5.44659 10.5532 5.26333 9.52325 5.26333 9.52325C5.26333 9.52325 4.11933 9.58101 3.52582 10.2523Z" fill="#F4B71A"/>
<path d="M0.760962 11.5886C1.45748 12.164 2.52344 11.9903 2.52344 11.9903C2.52344 11.9903 2.45931 10.8848 1.76284 10.3101C1.06632 9.73474 0.000367165 9.90839 0.000367165 9.90839C0.000367165 9.90839 0.0638924 11.0133 0.760962 11.5886Z" fill="#F4B71A"/>
<path d="M3.65685 7.71056C2.94771 8.26696 2.93635 9.31134 2.93635 9.31134C2.93635 9.31134 4.07389 9.45267 4.78243 8.89622C5.49157 8.33984 5.50293 7.29544 5.50293 7.29544C5.50293 7.29544 4.36605 7.15363 3.65685 7.71056Z" fill="#F4B71A"/>
<path d="M0.686612 8.54463C1.26513 9.23119 2.34673 9.24553 2.34673 9.24553C2.34673 9.24553 2.48943 8.14759 1.91086 7.46159C1.33234 6.77503 0.25071 6.76068 0.25071 6.76068C0.25071 6.76068 0.107517 7.85799 0.686612 8.54463Z" fill="#F4B71A"/>
<path d="M4.25029 5.30719C3.44479 5.72423 3.22979 6.74725 3.22979 6.74725C3.22979 6.74725 4.32011 7.09301 5.12504 6.67578C5.93054 6.25874 6.14551 5.23573 6.14551 5.23573C6.14551 5.23573 5.05593 4.88962 4.25029 5.30719Z" fill="#F4B71A"/>
<path d="M1.16984 5.58545C1.6044 6.36459 2.66455 6.57555 2.66455 6.57555C2.66455 6.57555 3.01905 5.52385 2.58433 4.74523C2.1498 3.96609 1.08962 3.75513 1.08962 3.75513C1.08962 3.75513 0.734763 4.80611 1.16984 5.58545Z" fill="#F4B71A"/>
<path d="M5.15824 2.8587C4.28899 3.13257 3.89129 4.1027 3.89129 4.1027C3.89129 4.1027 4.90246 4.62766 5.77113 4.35355C6.64038 4.07969 7.03809 3.10953 7.03809 3.10953C7.03809 3.10953 6.02774 2.58435 5.15824 2.8587Z" fill="#F4B71A"/>
<path d="M2.07226 2.61064C2.35868 3.45091 3.36463 3.83811 3.36463 3.83811C3.36463 3.83811 3.90498 2.86339 3.61829 2.02363C3.33188 1.18335 2.32592 0.796143 2.32592 0.796143C2.32592 0.796143 1.78536 1.77011 2.07226 2.61064Z" fill="#F4B71A"/>
<path d="M5.12625 0.498224C4.55097 1.05079 4.60512 2.00349 4.60512 2.00349C4.60512 2.00349 5.59119 2.05949 6.16597 1.50689C6.74127 0.954323 6.68712 0.00162427 6.68712 0.00162427C6.68712 0.00162427 5.70155 -0.0548512 5.12625 0.498224Z" fill="#F4B71A"/>
</g>
<defs>
<clipPath id="clip0_1_3357">
<rect width="11" height="24" fill="white" transform="matrix(-1 0 0 1 11 0)"/>
</clipPath>
</defs>
</svg>
